<!-- created by svgstack.com | Attribution is required. --><svg width="201" height="201" viewBox="0 0 201 201" fill="none" xmlns="http://www.w3.org/2000/svg"><g clip-path="url(#clip0_105_1292)"><path d="M151.103 67.9768V44.4891C154.207 43.0384 156.835 40.736 158.681 37.8499C160.528 34.9637 161.516 31.6126 161.532 28.1864V27.6475C161.532 17.6582 153.434 9.56015 143.445 9.56015H142.906C132.916 9.56015 124.818 17.6582 124.818 27.6475V28.1864C124.834 31.6126 125.823 34.9637 127.669 37.8499C129.515 40.736 132.143 43.0384 135.247 44.4891V67.9768C126.326 69.3429 117.925 73.0419 110.893 78.6993L46.477 28.5255C46.9363 26.8674 47.1759 25.1623 47.203 23.4509C47.2108 19.4198 46.023 15.477 43.7898 12.1212C41.5565 8.76531 38.3782 6.14716 34.6567 4.5979C30.9353 3.04864 26.838 2.63787 22.8831 3.41754C18.9282 4.19722 15.2934 6.13231 12.4384 8.97806C9.58338 11.8238 7.6365 15.4523 6.844 19.4047C6.05151 23.3571 6.44899 27.4557 7.98617 31.1821C9.52335 34.9085 12.1312 38.0954 15.4798 40.3395C18.8284 42.5836 22.7673 43.7842 26.7983 43.7894C30.3248 43.7728 33.7851 42.8313 36.8339 41.059L100.265 90.4184C88.6037 108.035 88.9157 130.995 101.051 148.29L81.7586 167.588C80.1984 167.09 78.5745 166.825 76.937 166.802C67.6975 166.81 60.2125 174.303 60.2149 183.543C60.2172 192.781 67.7071 200.27 76.9458 200.273C86.1853 200.275 93.6783 192.79 93.6863 183.551C93.6645 181.914 93.3995 180.289 92.8998 178.73L111.985 159.637C129.039 172.765 152.46 173.896 170.7 162.473C188.938 151.048 198.143 129.48 193.773 108.408C189.402 87.3346 172.381 71.2063 151.103 67.976V67.9768ZM143.192 145.226C139.666 145.321 136.157 144.708 132.872 143.424C129.586 142.141 126.592 140.212 124.064 137.751C121.537 135.291 119.528 132.349 118.156 129.099C116.784 125.85 116.078 122.358 116.078 118.831C116.078 115.304 116.784 111.812 118.156 108.563C119.528 105.313 121.537 102.371 124.064 99.911C126.592 97.4507 129.586 95.5216 132.872 94.2378C136.157 92.954 139.666 92.3415 143.192 92.4364C157.401 92.9339 168.665 104.593 168.673 118.812C168.679 133.029 157.428 144.7 143.218 145.212" fill="#FF7A59"/></g><defs><clipPath id="clip0_105_1292"><rect width="200" height="200" fill="white" transform="translate(0.919922 0.275146)"/></clipPath></defs></svg> 